<?xml version="1.0" encoding="utf-8"?>
<!-- Generator: Adobe Illustrator 18.1.1, SVG Export Plug-In . SVG Version: 6.00 Build 0)  -->
<svg version="1.1" id="Слой_1" xmlns="http://www.w3.org/2000/svg" xmlns:xlink="http://www.w3.org/1999/xlink" x="0px" y="0px"
	 viewBox="0 0 28.655 34.454" enable-background="new 0 0 28.655 34.454" xml:space="preserve">
<g>
	<path fill="#39B539" d="M28.544,8.903c0-0.001,0-0.001,0-0.002c-0.075-0.185-0.187-0.355-0.332-0.5c0,0,0-0.001,0-0.001
		l-3.976-3.976l-3.976-3.976c-0.017-0.017-0.037-0.029-0.055-0.046c-0.203-0.187-0.449-0.318-0.72-0.372
		C19.385,0.01,19.285,0,19.182,0h0h-0.001H2.601C1.907,0,1.254,0.271,0.763,0.763C0.271,1.255,0,1.907,0,2.601v29.252
		c0,0.694,0.271,1.347,0.763,1.838c0.492,0.492,1.145,0.763,1.838,0.763h23.453c0.693,0,1.346-0.271,1.838-0.763
		c0.492-0.492,0.763-1.145,0.763-1.838V9.473C28.655,9.274,28.616,9.082,28.544,8.903z M19.409,1.057
		c0.008,0.004,0.014,0.01,0.021,0.015c-0.009-0.005-0.017-0.011-0.025-0.017C19.407,1.056,19.408,1.057,19.409,1.057z M10.46,28.768
		c0,0.577-0.119,1.09-0.356,1.539S9.532,31.104,9.1,31.352c-0.432,0.247-0.919,0.372-1.462,0.375H5.714v-6.209h1.911
		c0.545,0,1.034,0.123,1.464,0.369s0.767,0.596,1.008,1.049c0.242,0.454,0.363,0.969,0.363,1.546V28.768z M16.796,28.763
		c0,0.611-0.108,1.147-0.324,1.607c-0.216,0.461-0.525,0.816-0.928,1.066s-0.863,0.375-1.384,0.375
		c-0.515,0-0.974-0.123-1.377-0.371c-0.404-0.247-0.717-0.6-0.938-1.06c-0.222-0.459-0.334-0.987-0.337-1.584V28.49
		c0-0.611,0.11-1.149,0.331-1.614c0.22-0.465,0.531-0.821,0.934-1.07s0.862-0.373,1.379-0.373s0.977,0.124,1.379,0.373
		s0.714,0.605,0.934,1.07s0.331,1.001,0.331,1.609V28.763z M19.444,30.303c0.203,0.31,0.524,0.465,0.962,0.465
		c0.395,0,0.69-0.091,0.885-0.271c0.194-0.181,0.306-0.46,0.335-0.838h1.279c-0.049,0.668-0.295,1.194-0.74,1.578
		s-1.031,0.575-1.759,0.575c-0.796,0-1.422-0.268-1.879-0.804c-0.456-0.535-0.684-1.271-0.684-2.206v-0.38
		c0-0.597,0.105-1.123,0.316-1.578c0.21-0.454,0.511-0.804,0.901-1.047c0.391-0.243,0.845-0.364,1.362-0.364
		c0.717,0,1.294,0.191,1.731,0.575c0.438,0.384,0.691,0.923,0.759,1.616h-1.279c-0.032-0.4-0.143-0.691-0.334-0.872
		c-0.192-0.18-0.484-0.271-0.877-0.271c-0.426,0-0.745,0.153-0.957,0.459c-0.212,0.305-0.32,0.779-0.326,1.422v0.469
		C19.139,29.502,19.241,29.992,19.444,30.303z M25.617,23.141H3.039V3.039h14.63l0.016,6.346c-0.001,0.025-0.002,0.05-0.002,0.064
		c-0.002,0.835,0.677,1.518,1.515,1.521c0.001,0,0.002,0,0.003,0c0.02,0,0.041-0.001,0.061-0.002l6.356,0.019V23.141z"/>
	<path fill="#39B539" d="M14.152,26.49c-0.429,0-0.76,0.167-0.994,0.501c-0.233,0.334-0.351,0.823-0.354,1.469v0.303
		c0,0.634,0.116,1.126,0.35,1.476c0.233,0.35,0.568,0.524,1.006,0.524c0.43,0,0.759-0.168,0.989-0.505
		c0.23-0.337,0.347-0.828,0.35-1.474v-0.303c0-0.651-0.117-1.146-0.35-1.484C14.916,26.659,14.584,26.49,14.152,26.49z"/>
	<path fill="#39B539" d="M7.625,26.554H6.993v4.146h0.618c0.5,0,0.883-0.164,1.147-0.491c0.265-0.326,0.399-0.794,0.405-1.402
		v-0.328c0-0.632-0.131-1.109-0.393-1.436C8.51,26.717,8.128,26.554,7.625,26.554z"/>
</g>
</svg>
