<?xml version="1.0" encoding="utf-8"?>
<!-- Generator: Adobe Illustrator 18.1.1, SVG Export Plug-In . SVG Version: 6.00 Build 0)  -->
<svg version="1.1" id="Слой_1" xmlns="http://www.w3.org/2000/svg" xmlns:xlink="http://www.w3.org/1999/xlink" x="0px" y="0px"
	 viewBox="0 0 28.655 34.454" enable-background="new 0 0 28.655 34.454" xml:space="preserve">
<g>
	<path fill="#39B539" d="M13.83,26.554h-1.173v1.949h1.143c0.338,0,0.597-0.08,0.774-0.239c0.177-0.159,0.266-0.387,0.266-0.682
		c0-0.305-0.089-0.551-0.269-0.738S14.145,26.56,13.83,26.554z"/>
	<path fill="#39B539" d="M28.544,8.903c0-0.001,0-0.001,0-0.001c-0.075-0.185-0.187-0.355-0.332-0.501c0,0,0-0.001,0-0.001
		l-3.976-3.976l-3.976-3.976c-0.017-0.017-0.037-0.029-0.055-0.046c-0.203-0.187-0.449-0.318-0.72-0.372
		C19.385,0.01,19.285,0,19.182,0h0h-0.001H2.601C1.907,0,1.254,0.271,0.763,0.763C0.271,1.255,0,1.907,0,2.601v29.252
		c0,0.694,0.271,1.347,0.763,1.838c0.492,0.492,1.145,0.763,1.838,0.763h23.453c0.693,0,1.346-0.271,1.838-0.763
		c0.492-0.492,0.763-1.145,0.763-1.838V9.473C28.655,9.274,28.616,9.082,28.544,8.903z M19.409,1.057
		c0.008,0.004,0.014,0.01,0.021,0.015c-0.009-0.005-0.017-0.011-0.025-0.017C19.407,1.056,19.408,1.057,19.409,1.057z M9.671,29.817
		c0,0.395-0.088,0.744-0.263,1.047S8.987,31.4,8.669,31.565C8.35,31.73,7.99,31.812,7.59,31.812c-0.657,0-1.168-0.167-1.535-0.501
		s-0.55-0.807-0.55-1.418h1.287c0,0.305,0.064,0.529,0.192,0.674c0.128,0.146,0.33,0.218,0.605,0.218
		c0.244,0,0.439-0.084,0.584-0.252c0.145-0.167,0.218-0.406,0.218-0.716v-4.299h1.279V29.817z M15.508,29.013
		c-0.417,0.351-0.993,0.526-1.729,0.526h-1.121v2.188h-1.279v-6.209h2.422c0.466,0,0.876,0.086,1.23,0.256
		c0.354,0.171,0.626,0.413,0.816,0.728c0.19,0.313,0.286,0.671,0.286,1.072C16.133,28.182,15.924,28.662,15.508,29.013z
		 M19.14,30.286c0.247,0.333,0.609,0.499,1.087,0.499c0.48,0,0.823-0.103,1.028-0.307v-1.07h-1.164v-0.942h2.443v2.478
		c-0.23,0.275-0.556,0.489-0.977,0.642c-0.42,0.151-0.887,0.228-1.399,0.228c-0.537,0-1.008-0.117-1.413-0.352
		c-0.405-0.234-0.718-0.575-0.938-1.021c-0.22-0.446-0.333-0.971-0.339-1.573v-0.422c0-0.62,0.104-1.156,0.313-1.61
		c0.209-0.453,0.51-0.8,0.904-1.04c0.394-0.24,0.855-0.36,1.384-0.36c0.736,0,1.312,0.176,1.727,0.526
		c0.415,0.352,0.661,0.862,0.738,1.533h-1.245c-0.057-0.355-0.183-0.615-0.377-0.78c-0.195-0.165-0.463-0.247-0.804-0.247
		c-0.435,0-0.767,0.163-0.994,0.49c-0.228,0.327-0.342,0.813-0.345,1.458v0.396C18.769,29.462,18.893,29.954,19.14,30.286z
		 M25.617,23.141H3.039V3.039h14.63l0.016,6.346c-0.001,0.025-0.002,0.05-0.002,0.064c-0.002,0.835,0.677,1.518,1.515,1.521
		c0.001,0,0.002,0,0.003,0c0.02,0,0.041-0.001,0.061-0.002l6.356,0.019V23.141z"/>
</g>
</svg>
