<?xml version="1.0" encoding="utf-8"?>
<!-- Generator: Adobe Illustrator 21.0.2, SVG Export Plug-In . SVG Version: 6.00 Build 0)  -->
<svg version="1.1" id="Слой_1" xmlns="http://www.w3.org/2000/svg" xmlns:xlink="http://www.w3.org/1999/xlink" x="0px" y="0px"
	 viewBox="0 0 28.656 34.454" style="enable-background:new 0 0 28.656 34.454;" xml:space="preserve">
<style type="text/css">
	.st0{fill:#39B539;}
</style>
<g>
	<path class="st0" d="M28.544,8.903c0-0.001,0-0.001,0-0.002c-0.075-0.185-0.187-0.355-0.332-0.5c0,0,0-0.001-0.001-0.001
		l-3.976-3.976l-3.976-3.976c-0.017-0.017-0.037-0.029-0.055-0.046c-0.203-0.187-0.449-0.318-0.72-0.372
		C19.385,0.01,19.285,0,19.182,0h0h-0.001H2.601C1.907,0,1.254,0.271,0.763,0.763C0.271,1.255,0,1.907,0,2.601v29.252
		c0,0.694,0.271,1.347,0.763,1.838c0.491,0.492,1.145,0.763,1.838,0.763h23.453c0.693,0,1.346-0.271,1.838-0.763
		c0.492-0.492,0.763-1.145,0.763-1.838V9.473C28.656,9.274,28.616,9.082,28.544,8.903z M19.409,1.057
		c0.008,0.004,0.014,0.01,0.021,0.015c-0.009-0.005-0.017-0.011-0.025-0.017C19.407,1.056,19.408,1.057,19.409,1.057z
		 M10.507,29.013c-0.417,0.351-0.993,0.526-1.729,0.526H7.656v2.188H6.377v-6.209h2.422c0.466,0,0.876,0.086,1.23,0.256
		c0.354,0.171,0.626,0.413,0.816,0.728c0.19,0.313,0.286,0.671,0.286,1.072C11.132,28.182,10.924,28.662,10.507,29.013z
		 M17.062,28.768c0,0.577-0.119,1.09-0.356,1.539s-0.572,0.797-1.004,1.045c-0.433,0.247-0.92,0.372-1.463,0.375h-1.923v-6.209h1.91
		c0.546,0,1.034,0.123,1.465,0.369s0.767,0.596,1.008,1.049c0.242,0.454,0.363,0.969,0.363,1.546V28.768z M22.34,26.554h-2.763
		v1.604h2.456v1.032h-2.456v2.537h-1.279v-6.209h4.042V26.554z M25.617,23.141H3.039V3.039h14.63l0.016,6.346
		c-0.001,0.025-0.002,0.05-0.002,0.064c-0.002,0.835,0.677,1.518,1.515,1.521c0.001,0,0.002,0,0.003,0
		c0.02,0,0.041-0.001,0.061-0.002l6.356,0.019V23.141z"/>
	<path class="st0" d="M14.226,26.554h-0.631V30.7h0.618c0.5,0,0.883-0.164,1.147-0.491c0.264-0.326,0.399-0.794,0.405-1.402v-0.328
		c0-0.632-0.131-1.109-0.392-1.436C15.112,26.717,14.729,26.554,14.226,26.554z"/>
	<path class="st0" d="M8.829,26.554H7.656v1.949h1.143c0.338,0,0.596-0.08,0.773-0.239s0.267-0.387,0.267-0.682
		c0-0.305-0.09-0.551-0.269-0.738C9.392,26.657,9.144,26.56,8.829,26.554z"/>
</g>
</svg>
